# xmcd CD database file
# Copyright (C) 1993-1998 Ti Kan
# 
# Track frame offsets:
#     150
#     14890
#     32907
#     63205
#     85317
#     102727
#     117932
#     131972
#     157860
#     172762
#     184495
#     200082
#     213332
#     242817
# 
# Disc length: 3464 seconds
# 
# Revision: 1
# Processed by: cddbd v1.4b41PL1 Copyright (c) Steve Scherf et al.
# Submitted via: DiscPlay 4.0.4
# 
DISCID=ce0d860e
DTITLE=Danny B. Blues Band - Much Too Late
DYEAR=1900
DGENRE=
TTITLE0=I Like
TTITLE1=Big Boss Man
TTITLE2=Mojo
TTITLE3=Much Too Late
TTITLE4=Caldonia
TTITLE5=Kansas City
TTITLE6=Boogie Woogie Country Girl
TTITLE7=Long Distance Call
TTITLE8=I'm Ready
TTITLE9=Danny's Boogie
TTITLE10=When You Live with the Lame, You Learn to Limp
TTITLE11=Doctor's Boogie
TTITLE12=The Thrill is Gone
TTITLE13=It's About Time
EXTD=
EXTT0=
EXTT1=
EXTT2=
EXTT3=
EXTT4=
EXTT5=
EXTT6=
EXTT7=
EXTT8=
EXTT9=
EXTT10=
EXTT11=
EXTT12=
EXTT13=
PLAYORDER=
